<svg xmlns="http://www.w3.org/2000/svg" width="640" height="256" viewBox="0 0 640 256" shape-rendering="crispEdges"><rect width="640" height="256" fill="none"/><g><rect x="20" y="104" width="88" height="8" fill="#000" opacity=".18"/><rect x="24" y="56" width="80" height="48" fill="#cdbb91" stroke="#403c39" stroke-width="4"/><rect x="16" y="44" width="96" height="20" fill="#456c9a" stroke="#403c39" stroke-width="4"/><rect x="32" y="36" width="64" height="12" fill="#456c9a"/><rect x="56" y="76" width="16" height="28" fill="#584333"/><rect x="34" y="72" width="16" height="16" fill="#f3cd75" stroke="#624d38" stroke-width="4"/><rect x="78" y="72" width="16" height="16" fill="#f3cd75" stroke="#624d38" stroke-width="4"/><rect x="24" y="32" width="16" height="28" fill="#cdbb91"/><rect x="88" y="32" width="16" height="28" fill="#cdbb91"/><rect x="62" y="12" width="4" height="28" fill="#503a28"/><rect x="66" y="12" width="24" height="12" fill="#456c9a"/></g><g><rect x="148" y="104" width="88" height="8" fill="#000" opacity=".18"/><rect x="152" y="56" width="80" height="48" fill="#d3b889" stroke="#403c39" stroke-width="4"/><rect x="144" y="44" width="96" height="20" fill="#94543f" stroke="#403c39" stroke-width="4"/><rect x="160" y="36" width="64" height="12" fill="#94543f"/><rect x="184" y="76" width="16" height="28" fill="#584333"/><rect x="162" y="72" width="16" height="16" fill="#f1ca70" stroke="#624d38" stroke-width="4"/><rect x="206" y="72" width="16" height="16" fill="#f1ca70" stroke="#624d38" stroke-width="4"/></g><g><rect x="276" y="104" width="88" height="8" fill="#000" opacity=".18"/><rect x="280" y="56" width="80" height="48" fill="#c7aa7d" stroke="#403c39" stroke-width="4"/><rect x="272" y="44" width="96" height="20" fill="#7f3940" stroke="#403c39" stroke-width="4"/><rect x="288" y="36" width="64" height="12" fill="#7f3940"/><rect x="312" y="76" width="16" height="28" fill="#584333"/><rect x="290" y="72" width="16" height="16" fill="#9b4448" stroke="#624d38" stroke-width="4"/><rect x="334" y="72" width="16" height="16" fill="#9b4448" stroke="#624d38" stroke-width="4"/><rect x="352" y="28" width="4" height="52" fill="#66472f"/><rect x="356" y="28" width="20" height="12" fill="#9b4448"/></g><g><rect x="404" y="104" width="88" height="8" fill="#000" opacity=".18"/><rect x="408" y="56" width="80" height="48" fill="#c8b68a" stroke="#403c39" stroke-width="4"/><rect x="400" y="44" width="96" height="20" fill="#51734c" stroke="#403c39" stroke-width="4"/><rect x="416" y="36" width="64" height="12" fill="#51734c"/><rect x="440" y="76" width="16" height="28" fill="#584333"/><rect x="418" y="72" width="16" height="16" fill="#d5bb78" stroke="#624d38" stroke-width="4"/><rect x="462" y="72" width="16" height="16" fill="#d5bb78" stroke="#624d38" stroke-width="4"/><rect x="476" y="56" width="4" height="36" fill="#d3b570"/><rect x="480" y="60" width="12" height="28" fill="none" stroke="#d3b570" stroke-width="4"/></g><g><rect x="532" y="104" width="88" height="8" fill="#000" opacity=".18"/><rect x="536" y="56" width="80" height="48" fill="#d8d1bf" stroke="#403c39" stroke-width="4"/><rect x="528" y="44" width="96" height="20" fill="#69539b" stroke="#403c39" stroke-width="4"/><rect x="544" y="36" width="64" height="12" fill="#69539b"/><rect x="568" y="76" width="16" height="28" fill="#584333"/><rect x="546" y="72" width="16" height="16" fill="#9a88ef" stroke="#624d38" stroke-width="4"/><rect x="590" y="72" width="16" height="16" fill="#9a88ef" stroke="#624d38" stroke-width="4"/><rect x="570" y="52" width="12" height="12" fill="#9a88ef"/><rect x="574" y="40" width="4" height="36" fill="#a894f2"/></g><g><rect x="20" y="232" width="88" height="8" fill="#000" opacity=".18"/><rect x="24" y="184" width="80" height="48" fill="#97958f" stroke="#403c39" stroke-width="4"/><rect x="16" y="172" width="96" height="20" fill="#4a4d52" stroke="#403c39" stroke-width="4"/><rect x="32" y="164" width="64" height="12" fill="#4a4d52"/><rect x="56" y="204" width="16" height="28" fill="#584333"/><rect x="34" y="200" width="16" height="16" fill="#ed8248" stroke="#624d38" stroke-width="4"/><rect x="78" y="200" width="16" height="16" fill="#ed8248" stroke="#624d38" stroke-width="4"/><rect x="88" y="156" width="12" height="36" fill="#474746"/><rect x="28" y="216" width="16" height="12" fill="#ed8248"/></g><g><rect x="148" y="232" width="88" height="8" fill="#000" opacity=".18"/><rect x="152" y="184" width="80" height="48" fill="#b79268" stroke="#403c39" stroke-width="4"/><rect x="144" y="172" width="96" height="20" fill="#664c38" stroke="#403c39" stroke-width="4"/><rect x="160" y="164" width="64" height="12" fill="#664c38"/><rect x="184" y="204" width="16" height="28" fill="#584333"/><rect x="162" y="200" width="16" height="16" fill="#7a5736" stroke="#624d38" stroke-width="4"/><rect x="206" y="200" width="16" height="16" fill="#7a5736" stroke="#624d38" stroke-width="4"/><rect x="158" y="212" width="16" height="16" fill="#7a5736"/><rect x="206" y="212" width="16" height="16" fill="#7a5736"/></g><g><rect x="276" y="232" width="88" height="8" fill="#000" opacity=".18"/><rect x="278" y="208" width="84" height="20" fill="#79583d" stroke="#3d2f27" stroke-width="4"/><rect x="314" y="176" width="12" height="48" fill="#6e5035"/><rect x="302" y="168" width="36" height="20" fill="#a47e55" stroke="#3d2f27" stroke-width="4"/><rect x="348" y="182" width="8" height="36" fill="#d3dae0"/></g><g><rect x="404" y="232" width="88" height="8" fill="#000" opacity=".18"/><rect x="408" y="184" width="80" height="48" fill="#d8d1bf" stroke="#403c39" stroke-width="4"/><rect x="400" y="172" width="96" height="20" fill="#699596" stroke="#403c39" stroke-width="4"/><rect x="416" y="164" width="64" height="12" fill="#699596"/><rect x="440" y="204" width="16" height="28" fill="#584333"/><rect x="418" y="200" width="16" height="16" fill="#86ddd8" stroke="#624d38" stroke-width="4"/><rect x="462" y="200" width="16" height="16" fill="#86ddd8" stroke="#624d38" stroke-width="4"/><rect x="436" y="184" width="24" height="24" fill="#86ddd8"/><rect x="442" y="178" width="12" height="36" fill="#bcece7"/></g><g><rect x="532" y="232" width="88" height="8" fill="#000" opacity=".18"/><rect x="556" y="172" width="40" height="60" fill="#aaa59c" stroke="#3d3d42" stroke-width="4"/><rect x="548" y="164" width="56" height="16" fill="#55616d" stroke="#3d3d42" stroke-width="4"/><rect x="570" y="204" width="12" height="28" fill="#4a382f"/><rect x="596" y="148" width="4" height="32" fill="#513d2a"/><rect x="600" y="148" width="20" height="12" fill="#6388ae"/></g></svg>