<svg xmlns="http://www.w3.org/2000/svg" width="768" height="128" viewBox="0 0 768 128" shape-rendering="crispEdges">
<rect width="768" height="128" fill="none"/>
<!-- Warrior -->
<g transform="translate(0 0)">
<rect x="36" y="106" width="56" height="6" fill="#000" opacity=".22"/>
<rect x="48" y="78" width="12" height="28" fill="#314760"/><rect x="70" y="78" width="12" height="28" fill="#314760"/>
<rect x="40" y="48" width="48" height="42" fill="#4b78a8" stroke="#222633" stroke-width="4"/><rect x="44" y="52" width="40" height="7" fill="#709ac5"/><rect x="44" y="63" width="10" height="20" fill="#2f4c6c"/>
<rect x="48" y="22" width="32" height="28" fill="#e7bf9a" stroke="#222633" stroke-width="4"/><rect x="44" y="16" width="40" height="12" fill="#647f9f"/><rect x="54" y="12" width="20" height="8" fill="#86a0bd"/><rect x="62" y="6" width="6" height="8" fill="#b74b4b"/>
<rect x="56" y="34" width="4" height="4" fill="#25232a"/><rect x="68" y="34" width="4" height="4" fill="#25232a"/>
<rect x="27" y="54" width="17" height="30" fill="#7189a5" stroke="#d5dde7" stroke-width="4"/><rect x="91" y="46" width="7" height="42" fill="#d2dae1"/><rect x="86" y="70" width="18" height="6" fill="#7b5837"/>
</g>
<!-- Archer -->
<g transform="translate(128 0)">
<rect x="36" y="106" width="56" height="6" fill="#000" opacity=".22"/>
<rect x="48" y="78" width="12" height="28" fill="#34513a"/><rect x="70" y="78" width="12" height="28" fill="#34513a"/>
<rect x="40" y="48" width="48" height="42" fill="#5d8954" stroke="#222633" stroke-width="4"/><rect x="44" y="52" width="40" height="7" fill="#7da872"/><rect x="74" y="57" width="10" height="24" fill="#3d653f"/>
<rect x="48" y="22" width="32" height="28" fill="#e7bf9a" stroke="#222633" stroke-width="4"/><rect x="44" y="16" width="40" height="15" fill="#385c3b"/><rect x="48" y="11" width="32" height="8" fill="#4c744b"/>
<rect x="56" y="34" width="4" height="4" fill="#25232a"/><rect x="68" y="34" width="4" height="4" fill="#25232a"/>
<rect x="92" y="42" width="4" height="48" fill="#d1b16b"/><rect x="96" y="48" width="4" height="36" fill="#f0dfae"/><rect x="24" y="48" width="8" height="36" fill="#765435"/><rect x="26" y="51" width="4" height="4" fill="#e5d9a7"/><rect x="26" y="60" width="4" height="4" fill="#e5d9a7"/><rect x="26" y="69" width="4" height="4" fill="#e5d9a7"/>
</g>
<!-- Mage -->
<g transform="translate(256 0)">
<rect x="36" y="106" width="56" height="6" fill="#000" opacity=".22"/>
<rect x="48" y="78" width="12" height="28" fill="#403366"/><rect x="70" y="78" width="12" height="28" fill="#403366"/>
<rect x="40" y="48" width="48" height="42" fill="#6f56a5" stroke="#222633" stroke-width="4"/><rect x="44" y="52" width="40" height="7" fill="#9a82cf"/><rect x="58" y="58" width="12" height="26" fill="#523f82"/>
<rect x="48" y="24" width="32" height="26" fill="#e7bf9a" stroke="#222633" stroke-width="4"/><rect x="38" y="19" width="52" height="8" fill="#4b3b74"/><polygon points="48,19 63,4 82,19" fill="#6f56a5" stroke="#222633" stroke-width="4"/>
<rect x="56" y="35" width="4" height="4" fill="#25232a"/><rect x="68" y="35" width="4" height="4" fill="#25232a"/>
<rect x="93" y="39" width="6" height="55" fill="#76543a"/><rect x="87" y="27" width="18" height="18" fill="#a997ef"/><rect x="92" y="32" width="8" height="8" fill="#e0d7ff"/>
</g>
<!-- Cleric -->
<g transform="translate(384 0)">
<rect x="36" y="106" width="56" height="6" fill="#000" opacity=".22"/>
<rect x="48" y="78" width="12" height="28" fill="#8b7647"/><rect x="70" y="78" width="12" height="28" fill="#8b7647"/>
<rect x="40" y="48" width="48" height="42" fill="#d0b86e" stroke="#222633" stroke-width="4"/><rect x="44" y="52" width="40" height="7" fill="#f0d990"/><rect x="58" y="58" width="12" height="26" fill="#f6e7ba"/>
<rect x="48" y="23" width="32" height="27" fill="#e7bf9a" stroke="#222633" stroke-width="4"/><rect x="44" y="16" width="40" height="13" fill="#e7d8ab"/><rect x="50" y="12" width="28" height="7" fill="#fff0c2"/>
<rect x="56" y="34" width="4" height="4" fill="#25232a"/><rect x="68" y="34" width="4" height="4" fill="#25232a"/>
<rect x="93" y="39" width="6" height="55" fill="#815d3d"/><rect x="87" y="31" width="18" height="7" fill="#fff2b5"/><rect x="93" y="24" width="6" height="22" fill="#fff2b5"/>
</g>
<!-- Knight -->
<g transform="translate(512 0)">
<rect x="34" y="106" width="60" height="6" fill="#000" opacity=".22"/>
<rect x="47" y="79" width="13" height="27" fill="#435267"/><rect x="70" y="79" width="13" height="27" fill="#435267"/>
<rect x="38" y="47" width="52" height="44" fill="#6f829c" stroke="#202631" stroke-width="4"/><rect x="42" y="51" width="44" height="8" fill="#93a4b8"/><rect x="58" y="59" width="13" height="26" fill="#4e6179"/>
<rect x="46" y="18" width="36" height="34" fill="#8798ac" stroke="#202631" stroke-width="4"/><rect x="50" y="30" width="28" height="7" fill="#313b4a"/><rect x="58" y="32" width="4" height="3" fill="#d8e0e6"/><rect x="68" y="32" width="4" height="3" fill="#d8e0e6"/>
<rect x="24" y="49" width="21" height="38" fill="#70849e" stroke="#d7dfe7" stroke-width="4"/><rect x="29" y="57" width="11" height="20" fill="#4e6582"/><rect x="93" y="45" width="7" height="44" fill="#d5dde4"/><rect x="88" y="69" width="18" height="6" fill="#735337"/>
</g>
<!-- Rogue -->
<g transform="translate(640 0)">
<rect x="36" y="106" width="56" height="6" fill="#000" opacity=".22"/>
<rect x="48" y="78" width="12" height="28" fill="#372f3b"/><rect x="70" y="78" width="12" height="28" fill="#372f3b"/>
<rect x="40" y="48" width="48" height="42" fill="#66556f" stroke="#222633" stroke-width="4"/><rect x="44" y="52" width="40" height="7" fill="#8a7893"/><rect x="44" y="63" width="11" height="19" fill="#4c4055"/>
<rect x="48" y="22" width="32" height="28" fill="#e7bf9a" stroke="#222633" stroke-width="4"/><rect x="44" y="16" width="40" height="16" fill="#302937"/><rect x="48" y="30" width="32" height="9" fill="#4a3c50"/>
<rect x="56" y="34" width="4" height="4" fill="#eee4dc"/><rect x="68" y="34" width="4" height="4" fill="#eee4dc"/>
<rect x="24" y="57" width="24" height="6" fill="#d4dce2"/><rect x="82" y="57" width="24" height="6" fill="#d4dce2"/><rect x="39" y="55" width="7" height="10" fill="#7b5737"/><rect x="84" y="55" width="7" height="10" fill="#7b5737"/>
</g></svg>