<svg xmlns="http://www.w3.org/2000/svg" width="768" height="128" viewBox="0 0 768 128" shape-rendering="crispEdges"><rect width="768" height="128" fill="none"/><g><rect x="36" y="104" width="56" height="8" fill="#000" opacity=".22"/><rect x="48" y="76" width="12" height="28" fill="#2f4762"/><rect x="68" y="76" width="12" height="28" fill="#2f4762"/><rect x="40" y="48" width="48" height="40" fill="#4b78a8" stroke="#252733" stroke-width="4"/><rect x="44" y="52" width="40" height="6" fill="#e2c36d"/><rect x="48" y="20" width="32" height="28" fill="#e6bf9b" stroke="#252733" stroke-width="4"/><rect x="48" y="16" width="32" height="12" fill="#5b3c2d"/><rect x="44" y="20" width="8" height="12" fill="#5b3c2d"/><rect x="76" y="20" width="8" height="12" fill="#5b3c2d"/><rect x="56" y="32" width="4" height="4" fill="#29242a"/><rect x="68" y="32" width="4" height="4" fill="#29242a"/><rect x="88" y="48" width="8" height="36" fill="#cfd8df"/><rect x="84" y="72" width="16" height="6" fill="#7c5a39"/></g><g><rect x="164" y="104" width="56" height="8" fill="#000" opacity=".22"/><rect x="176" y="76" width="12" height="28" fill="#38563a"/><rect x="196" y="76" width="12" height="28" fill="#38563a"/><rect x="168" y="48" width="48" height="40" fill="#5f8b55" stroke="#252733" stroke-width="4"/><rect x="172" y="52" width="40" height="6" fill="#d6ba6a"/><rect x="176" y="20" width="32" height="28" fill="#e6bf9b" stroke="#252733" stroke-width="4"/><rect x="176" y="16" width="32" height="12" fill="#5a3d2e"/><rect x="172" y="20" width="8" height="12" fill="#5a3d2e"/><rect x="204" y="20" width="8" height="12" fill="#5a3d2e"/><rect x="184" y="32" width="4" height="4" fill="#29242a"/><rect x="196" y="32" width="4" height="4" fill="#29242a"/><rect x="216" y="44" width="4" height="44" fill="#d0af67"/><rect x="220" y="48" width="4" height="36" fill="#eadcae"/></g><g><rect x="292" y="104" width="56" height="8" fill="#000" opacity=".22"/><rect x="304" y="76" width="12" height="28" fill="#44366e"/><rect x="324" y="76" width="12" height="28" fill="#44366e"/><rect x="296" y="48" width="48" height="40" fill="#6f56a5" stroke="#252733" stroke-width="4"/><rect x="300" y="52" width="40" height="6" fill="#b5a0ee"/><rect x="304" y="20" width="32" height="28" fill="#e6bf9b" stroke="#252733" stroke-width="4"/><rect x="304" y="16" width="32" height="12" fill="#3b2e55"/><rect x="300" y="20" width="8" height="12" fill="#3b2e55"/><rect x="332" y="20" width="8" height="12" fill="#3b2e55"/><rect x="312" y="32" width="4" height="4" fill="#29242a"/><rect x="324" y="32" width="4" height="4" fill="#29242a"/><rect x="348" y="40" width="6" height="52" fill="#7a5738"/><rect x="344" y="32" width="14" height="14" fill="#a997ef"/></g><g><rect x="420" y="104" width="56" height="8" fill="#000" opacity=".22"/><rect x="432" y="76" width="12" height="28" fill="#8c7645"/><rect x="452" y="76" width="12" height="28" fill="#8c7645"/><rect x="424" y="48" width="48" height="40" fill="#d0b86e" stroke="#252733" stroke-width="4"/><rect x="428" y="52" width="40" height="6" fill="#fff0b6"/><rect x="432" y="20" width="32" height="28" fill="#e6bf9b" stroke="#252733" stroke-width="4"/><rect x="432" y="16" width="32" height="12" fill="#e6d5a2"/><rect x="428" y="20" width="8" height="12" fill="#e6d5a2"/><rect x="460" y="20" width="8" height="12" fill="#e6d5a2"/><rect x="440" y="32" width="4" height="4" fill="#29242a"/><rect x="452" y="32" width="4" height="4" fill="#29242a"/><rect x="476" y="44" width="6" height="48" fill="#8a613a"/><rect x="471" y="36" width="16" height="6" fill="#fff1b5"/><rect x="476" y="31" width="6" height="16" fill="#fff1b5"/></g><g><rect x="548" y="104" width="56" height="8" fill="#000" opacity=".22"/><rect x="560" y="76" width="12" height="28" fill="#46586d"/><rect x="580" y="76" width="12" height="28" fill="#46586d"/><rect x="552" y="48" width="48" height="40" fill="#6f829c" stroke="#252733" stroke-width="4"/><rect x="556" y="52" width="40" height="6" fill="#d6dde6"/><rect x="560" y="20" width="32" height="28" fill="#e6bf9b" stroke="#252733" stroke-width="4"/><rect x="560" y="16" width="32" height="12" fill="#5c4636"/><rect x="556" y="20" width="8" height="12" fill="#5c4636"/><rect x="588" y="20" width="8" height="12" fill="#5c4636"/><rect x="568" y="32" width="4" height="4" fill="#29242a"/><rect x="580" y="32" width="4" height="4" fill="#29242a"/><rect x="540" y="54" width="16" height="28" fill="#8fa0b6" stroke="#d6dde6" stroke-width="4"/><rect x="600" y="48" width="8" height="36" fill="#cfd8df"/></g><g><rect x="676" y="104" width="56" height="8" fill="#000" opacity=".22"/><rect x="688" y="76" width="12" height="28" fill="#413748"/><rect x="708" y="76" width="12" height="28" fill="#413748"/><rect x="680" y="48" width="48" height="40" fill="#68556f" stroke="#252733" stroke-width="4"/><rect x="684" y="52" width="40" height="6" fill="#c8bacf"/><rect x="688" y="20" width="32" height="28" fill="#e6bf9b" stroke="#252733" stroke-width="4"/><rect x="688" y="16" width="32" height="12" fill="#302a35"/><rect x="684" y="20" width="8" height="12" fill="#302a35"/><rect x="716" y="20" width="8" height="12" fill="#302a35"/><rect x="696" y="32" width="4" height="4" fill="#29242a"/><rect x="708" y="32" width="4" height="4" fill="#29242a"/><rect x="668" y="58" width="20" height="6" fill="#d3dae1"/><rect x="724" y="58" width="20" height="6" fill="#d3dae1"/></g></svg>