<svg xmlns="http://www.w3.org/2000/svg" width="384" height="128" viewBox="0 0 384 128" shape-rendering="crispEdges"><rect width="384" height="128" fill="none"/><g><rect x="36" y="104" width="56" height="8" fill="#000" opacity=".22"/>
  <rect x="48" y="76" width="12" height="28" fill="#3e5d36"/><rect x="68" y="76" width="12" height="28" fill="#3e5d36"/>
  <rect x="40" y="48" width="48" height="40" fill="#6f9552" stroke="#24242b" stroke-width="4"/>
  <rect x="48" y="20" width="32" height="28" fill="#9db873" stroke="#24242b" stroke-width="4"/>
  <rect x="48" y="16" width="32" height="12" fill="#345034"/>
  <rect x="56" y="32" width="4" height="4" fill="#2a2022"/><rect x="68" y="32" width="4" height="4" fill="#2a2022"/><rect x="40" y="24" width="12" height="8" fill="#9db873"/><rect x="76" y="24" width="12" height="8" fill="#9db873"/><rect x="90" y="48" width="8" height="36" fill="#bcc5c8"/></g><g><rect x="164" y="104" width="56" height="8" fill="#000" opacity=".22"/>
  <rect x="176" y="76" width="12" height="28" fill="#47356e"/><rect x="196" y="76" width="12" height="28" fill="#47356e"/>
  <rect x="168" y="48" width="48" height="40" fill="#7359aa" stroke="#24242b" stroke-width="4"/>
  <rect x="176" y="20" width="32" height="28" fill="#d4b8d9" stroke="#24242b" stroke-width="4"/>
  <rect x="176" y="16" width="32" height="12" fill="#3e2f59"/>
  <rect x="184" y="32" width="4" height="4" fill="#2a2022"/><rect x="196" y="32" width="4" height="4" fill="#2a2022"/><rect x="220" y="40" width="6" height="52" fill="#77593b"/><rect x="216" y="28" width="16" height="16" fill="#aa98ff"/><rect x="220" y="32" width="8" height="8" fill="#e0d8ff"/></g><g><rect x="292" y="104" width="56" height="8" fill="#000" opacity=".22"/>
  <rect x="304" y="76" width="12" height="28" fill="#5c2e29"/><rect x="324" y="76" width="12" height="28" fill="#5c2e29"/>
  <rect x="296" y="48" width="48" height="40" fill="#9a4b3d" stroke="#24242b" stroke-width="4"/>
  <rect x="304" y="20" width="32" height="28" fill="#d6876c" stroke="#24242b" stroke-width="4"/>
  <rect x="304" y="16" width="32" height="12" fill="#3c2624"/>
  <rect x="312" y="32" width="4" height="4" fill="#2a2022"/><rect x="324" y="32" width="4" height="4" fill="#2a2022"/><rect x="300" y="8" width="8" height="16" fill="#3f2523"/><rect x="332" y="8" width="8" height="16" fill="#3f2523"/><rect x="346" y="48" width="8" height="36" fill="#d2d8df"/></g></svg>