<svg xmlns="http://www.w3.org/2000/svg" width="640" height="160" viewBox="0 0 640 160" shape-rendering="crispEdges">
<rect width="640" height="160" fill="none"/>
<g transform="translate(0 0)">
<rect width="320" height="160" fill="#4b4776"/><rect y="94" width="320" height="66" fill="#5d5785"/>
<rect x="0" y="78" width="320" height="18" fill="#39385f"/>
<rect x="44" y="72" width="52" height="68" fill="#7d74aa" stroke="#292641" stroke-width="6"/><rect x="224" y="72" width="52" height="68" fill="#7d74aa" stroke="#292641" stroke-width="6"/>
<rect x="104" y="54" width="112" height="86" fill="#8e84bb" stroke="#292641" stroke-width="6"/>
<rect x="126" y="76" width="68" height="64" fill="#625a90"/><rect x="147" y="102" width="26" height="38" fill="#2e2c49"/>
<rect x="57" y="48" width="26" height="26" fill="#a99af2"/><rect x="237" y="48" width="26" height="26" fill="#a99af2"/><rect x="147" y="30" width="28" height="28" fill="#c2b5ff"/>
<rect x="63" y="44" width="14" height="34" fill="#dcd5ff"/><rect x="243" y="44" width="14" height="34" fill="#dcd5ff"/><rect x="154" y="24" width="14" height="40" fill="#eeeaff"/>
<rect x="20" y="120" width="280" height="10" fill="#3b365d"/>
</g>
<g transform="translate(320 0)">
<rect width="320" height="160" fill="#6f3f39"/><rect y="94" width="320" height="66" fill="#5b3631"/>
<rect x="0" y="80" width="320" height="16" fill="#3b2928"/>
<rect x="38" y="68" width="58" height="72" fill="#4c3b3b" stroke="#241d1e" stroke-width="6"/><rect x="224" y="68" width="58" height="72" fill="#4c3b3b" stroke="#241d1e" stroke-width="6"/>
<rect x="98" y="50" width="124" height="90" fill="#594343" stroke="#241d1e" stroke-width="6"/>
<rect x="126" y="78" width="68" height="62" fill="#3a3031"/><rect x="148" y="102" width="24" height="38" fill="#171517"/>
<rect x="44" y="50" width="18" height="24" fill="#d66a43"/><rect x="258" y="50" width="18" height="24" fill="#d66a43"/><rect x="151" y="28" width="18" height="28" fill="#ee8a4c"/>
<rect x="48" y="42" width="10" height="16" fill="#ffd06a"/><rect x="262" y="42" width="10" height="16" fill="#ffd06a"/><rect x="155" y="18" width="10" height="18" fill="#ffd06a"/>
<rect x="18" y="122" width="284" height="8" fill="#2e2424"/><rect x="72" y="138" width="176" height="6" fill="#d75b3f"/>
</g></svg>